<?xml version="1.0" encoding="UTF-8" standalone="no" ?>
<!DOCTYPE svg PUBLIC "-//W3C//DTD SVG 1.1//EN" "http://www.w3.org/Graphics/SVG/1.1/DTD/svg11.dtd">
<svg xmlns="http://www.w3.org/2000/svg" xmlns:xlink="http://www.w3.org/1999/xlink" version="1.1" width="500" height="500" viewBox="0 0 500 500" xml:space="preserve">
<desc>Created with Fabric.js 3.6.3</desc>
<defs>
</defs>
<g transform="matrix(1.1962445516404572 0 0 1.1962445516404572 100.5 250)"  >
<path style="stroke: none; stroke-width: 0; stroke-dasharray: none; stroke-linecap: butt; stroke-dashoffset: 0; stroke-linejoin: miter; stroke-miterlimit: 4; fill: rgb(255,152,0); fill-rule: nonzero; opacity: 1;"  transform=" translate(-49.99747354454659, -50.007121499999165)" d="m 60.598 84.73 h -7.0664 c -0.64844 0 -1.1719 -0.52344 -1.1719 -1.1719 c 0 -0.64844 0.52344 -1.1719 1.1719 -1.1719 c 10.066 0 18.254 -8.1914 18.254 -18.258 v -34.152 h -5.8945 c -0.47266 0 -0.89844 -0.28516 -1.082 -0.72266 c -0.17969 -0.4375 -0.078125 -0.94141 0.25391 -1.2773 l 12.367 -12.367 c 0.4375 -0.4375 1.2188 -0.44141 1.6602 0.003906 l 12.363 12.367 c 0.33203 0.33203 0.43359 0.83594 0.25391 1.2773 c -0.18359 0.4375 -0.60938 0.72266 -1.082 0.72266 h -5.8945 v 30.621 c 0 13.305 -10.828 24.133 -24.133 24.133 z m 8.125 -57.098 h 4.2344 c 0.64844 0 1.1719 0.52344 1.1719 1.1719 v 35.324 c 0 7.7852 -4.3398 14.574 -10.727 18.078 c 10.695 -1.3828 18.98 -10.547 18.98 -21.609 v -31.793 c 0 -0.64844 0.52344 -1.1719 1.1719 -1.1719 h 4.2344 l -9.5352 -9.5352 l -9.5352 9.5352 z m -32.855 57.098 c -15.254 0 -27.668 -12.41 -27.668 -27.668 c 0 -15.254 12.41 -27.668 27.668 -27.668 c 15.254 0 27.664 12.41 27.664 27.668 c 0 15.254 -12.41 27.668 -27.664 27.668 z m 0 -52.992 c -13.965 0 -25.324 11.359 -25.324 25.324 s 11.359 25.324 25.324 25.324 c 13.961 0 25.32 -11.359 25.32 -25.324 s -11.359 -25.324 -25.32 -25.324 z m 0 44.16 c -0.64844 0 -1.1719 -0.52344 -1.1719 -1.1719 v -2.4453 c -3.9883 -0.57031 -7.0664 -4.0117 -7.0664 -8.1562 c 0 -0.64844 0.52344 -1.1719 1.1719 -1.1719 c 0.64844 0 1.1719 0.52344 1.1719 1.1719 c 0 3.25 2.6445 5.8945 5.8945 5.8945 s 5.8945 -2.6445 5.8945 -5.8945 s -2.6445 -5.8945 -5.8945 -5.8945 c -4.5391 0 -8.2383 -3.6953 -8.2383 -8.2383 c 0 -4.1445 3.0781 -7.582 7.0664 -8.1562 v -2.4453 c 0 -0.64844 0.52344 -1.1719 1.1719 -1.1719 c 0.64844 0 1.1719 0.52344 1.1719 1.1719 v 2.4453 c 3.9883 0.57031 7.0664 4.0117 7.0664 8.1562 c 0 0.64844 -0.52344 1.1719 -1.1719 1.1719 c -0.64844 0 -1.1719 -0.52344 -1.1719 -1.1719 c 0 -3.25 -2.6445 -5.8945 -5.8945 -5.8945 s -5.8945 2.6445 -5.8945 5.8945 s 2.6445 5.8945 5.8945 5.8945 c 4.5391 0 8.2383 3.6953 8.2383 8.2383 c 0 4.1445 -3.0781 7.582 -7.0664 8.1562 v 2.4453 c 0 0.64844 -0.52344 1.1719 -1.1719 1.1719 z" stroke-linecap="round" />
</g>
<g transform="matrix(1 0 0 1 328 262.13420231714565)" style=""  ><path fill="#FF9800" opacity="1" d="M-145.85-58.51L-134.33-26.76L-138.28-26.76L-142.31-37.87L-155.20-37.87L-159.32-26.76L-161.55-26.76L-149.80-58.51L-145.85-58.51ZM-154.42-39.96L-143.08-39.96L-148.71-55.47L-154.42-39.96Z"/><path fill="#FF9800" opacity="1" d="M-106.55-54.49Q-102.67-50.03-102.67-42.63Q-102.67-35.24-106.55-30.77Q-110.43-26.30-117.32-26.30L-117.32-26.30Q-121.77-26.30-125.71-26.76L-125.71-26.76L-129.34-26.76L-129.34-58.51L-125.71-58.51Q-121.77-58.96-117.32-58.96L-117.32-58.96Q-110.43-58.96-106.55-54.49ZM-109.88-32.63Q-107.11-36.87-107.11-42.63Q-107.11-48.39-109.88-52.63Q-112.65-56.88-117.32-56.88L-117.32-56.88Q-121.67-56.88-125.62-56.42L-125.62-56.42L-125.62-28.84Q-121.67-28.39-117.32-28.39L-117.32-28.39Q-112.65-28.39-109.88-32.63Z"/><path fill="#FF9800" opacity="1" d="M-84.89-58.51L-73.37-26.76L-77.31-26.76L-81.35-37.87L-94.23-37.87L-98.36-26.76L-100.58-26.76L-88.83-58.51L-84.89-58.51ZM-93.46-39.96L-82.12-39.96L-87.75-55.47L-93.46-39.96Z"/><path fill="#FF9800" opacity="1" d="M-44.56-49.89L-44.56-49.89Q-44.56-45.26-48.03-43.02Q-51.50-40.77-57.17-40.77L-57.17-40.77Q-60.76-40.77-64.66-41.50L-64.66-41.50L-64.66-26.76L-68.38-26.76L-68.38-58.51L-64.75-58.51Q-61.16-58.96-57.17-58.96L-57.17-58.96Q-51.50-58.96-48.03-56.72Q-44.56-54.47-44.56-49.89ZM-49.01-49.89L-49.01-49.89Q-49.01-52.88-51.43-54.88Q-53.86-56.88-57.17-56.88L-57.17-56.88Q-61.07-56.88-64.66-56.42L-64.66-56.42L-64.66-43.58Q-60.76-42.86-57.17-42.86L-57.17-42.86Q-53.86-42.86-51.43-44.85Q-49.01-46.85-49.01-49.89Z"/><path fill="#FF9800" opacity="1" d="M-15.99-58.51L-15.99-56.42L-26.60-56.42L-26.60-26.76L-30.32-26.76L-30.32-56.42L-40.93-56.42L-40.93-58.51L-15.99-58.51Z"/><path fill="#FF9800" opacity="1" d="M-133.65-8.88L-133.65-8.88Q-133.65-4.26-137.12-2.01Q-140.59 0.23-146.26 0.23L-146.26 0.23Q-149.84 0.23-153.74-0.49L-153.74-0.49L-153.74 14.25L-157.46 14.25L-157.46-17.50L-153.84-17.50Q-150.25-17.96-146.26-17.96L-146.26-17.96Q-140.59-17.96-137.12-15.71Q-133.65-13.47-133.65-8.88ZM-138.10-8.88L-138.10-8.88Q-138.10-11.88-140.52-13.87Q-142.95-15.87-146.26-15.87L-146.26-15.87Q-150.16-15.87-153.74-15.42L-153.74-15.42L-153.74-2.58Q-149.84-1.85-146.26-1.85L-146.26-1.85Q-142.95-1.85-140.52-3.85Q-138.10-5.85-138.10-8.88Z"/><path fill="#FF9800" opacity="1" d="M-111.38-0.13L-101.72 14.25L-106.16 14.25L-115.64 0.23Q-119.23 0.23-123.13-0.49L-123.13-0.49L-123.13 14.25L-126.85 14.25L-126.85-17.50L-123.22-17.50Q-119.63-17.96-115.64-17.96L-115.64-17.96Q-109.97-17.96-106.50-15.71Q-103.03-13.47-103.03-8.88L-103.03-8.88Q-103.03-5.21-105.25-3.06Q-107.48-0.90-111.38-0.13L-111.38-0.13ZM-107.48-8.88L-107.48-8.88Q-107.48-11.88-109.90-13.87Q-112.33-15.87-115.64-15.87L-115.64-15.87Q-119.54-15.87-123.13-15.42L-123.13-15.42L-123.13-2.58Q-119.23-1.85-115.64-1.85L-115.64-1.85Q-112.33-1.85-109.90-3.85Q-107.48-5.85-107.48-8.88Z"/><path fill="#FF9800" opacity="1" d="M-73.91-13.49Q-70.19-9.02-70.19-1.63Q-70.19 5.77-73.91 10.24Q-77.63 14.70-84.34 14.70L-84.34 14.70Q-91.10 14.70-94.82 10.24Q-98.54 5.77-98.54-1.63Q-98.54-9.02-94.82-13.49Q-91.10-17.96-84.34-17.96L-84.34-17.96Q-77.63-17.96-73.91-13.49ZM-75.57 5.63Q-74.64 2.55-74.64-1.63Q-74.64-5.80-75.57-8.88Q-76.50-11.97-78.72-13.92Q-80.94-15.87-84.34-15.87L-84.34-15.87Q-89.38-15.87-91.74-11.97Q-94.10-8.07-94.10-1.63Q-94.10 4.81-91.74 8.72Q-89.38 12.62-84.34 12.62L-84.34 12.62Q-80.94 12.62-78.72 10.67Q-76.50 8.72-75.57 5.63Z"/><path fill="#FF9800" opacity="1" d="M-31.41-17.50L-29.59 14.25L-33.31 14.25L-34.81-11.79L-47.24 14.25L-48.92 14.25L-61.21-11.47L-62.66 14.25L-64.75 14.25L-62.93-17.50L-59.94-17.50L-47.15 9.31L-34.40-17.50L-31.41-17.50Z"/><path fill="#FF9800" opacity="1" d="M0.48-13.49Q4.20-9.02 4.20-1.63Q4.20 5.77 0.48 10.24Q-3.24 14.70-9.95 14.70L-9.95 14.70Q-16.71 14.70-20.43 10.24Q-24.15 5.77-24.15-1.63Q-24.15-9.02-20.43-13.49Q-16.71-17.96-9.95-17.96L-9.95-17.96Q-3.24-17.96 0.48-13.49ZM-1.18 5.63Q-0.25 2.55-0.25-1.63Q-0.25-5.80-1.18-8.88Q-2.11-11.97-4.33-13.92Q-6.55-15.87-9.95-15.87L-9.95-15.87Q-14.99-15.87-17.35-11.97Q-19.71-8.07-19.71-1.63Q-19.71 4.81-17.35 8.72Q-14.99 12.62-9.95 12.62L-9.95 12.62Q-6.55 12.62-4.33 10.67Q-2.11 8.72-1.18 5.63Z"/><path fill="#FF9800" opacity="1" d="M31.14-17.50L31.14-15.42L20.53-15.42L20.53 14.25L16.81 14.25L16.81-15.42L6.20-15.42L6.20-17.50L31.14-17.50Z"/><path fill="#FF9800" opacity="1" d="M57.77-13.49Q61.49-9.02 61.49-1.63Q61.49 5.77 57.77 10.24Q54.05 14.70 47.34 14.70L47.34 14.70Q40.58 14.70 36.86 10.24Q33.14 5.77 33.14-1.63Q33.14-9.02 36.86-13.49Q40.58-17.96 47.34-17.96L47.34-17.96Q54.05-17.96 57.77-13.49ZM56.11 5.63Q57.04 2.55 57.04-1.63Q57.04-5.80 56.11-8.88Q55.18-11.97 52.96-13.92Q50.74-15.87 47.34-15.87L47.34-15.87Q42.30-15.87 39.94-11.97Q37.58-8.07 37.58-1.63Q37.58 4.81 39.94 8.72Q42.30 12.62 47.34 12.62L47.34 12.62Q50.74 12.62 52.96 10.67Q55.18 8.72 56.11 5.63Z"/><path fill="#FF9800" opacity="1" d="M83.76-0.13L93.42 14.25L88.98 14.25L79.50 0.23Q75.91 0.23 72.01-0.49L72.01-0.49L72.01 14.25L68.29 14.25L68.29-17.50L71.92-17.50Q75.51-17.96 79.50-17.96L79.50-17.96Q85.17-17.96 88.64-15.71Q92.11-13.47 92.11-8.88L92.11-8.88Q92.11-5.21 89.89-3.06Q87.66-0.90 83.76-0.13L83.76-0.13ZM87.66-8.88L87.66-8.88Q87.66-11.88 85.24-13.87Q82.81-15.87 79.50-15.87L79.50-15.87Q75.60-15.87 72.01-15.42L72.01-15.42L72.01-2.58Q75.91-1.85 79.50-1.85L79.50-1.85Q82.81-1.85 85.24-3.85Q87.66-5.85 87.66-8.88Z"/><path fill="#FF9800" opacity="1" d="M110.02-17.50L121.55 14.25L117.60 14.25L113.56 3.14L100.68 3.14L96.55 14.25L94.33 14.25L106.08-17.50L110.02-17.50ZM101.45 1.05L112.79 1.05L107.17-14.46L101.45 1.05Z"/></g><g transform="matrix(1 0 0 1 328 291.0398415151623)" style=""  ><path fill="#FFAC32" opacity="1" d="M-155.72 5.30L-154.27 5.30L-157.31-6.52L-158.81-6.52L-161.85 5.30L-160.40 5.30L-159.77 2.74L-156.34 2.74ZM-159.47 1.45L-158.50-2.55C-158.32-3.31-158.15-4.30-158.08-4.76L-158.03-4.76C-157.96-4.30-157.80-3.31-157.61-2.55L-156.65 1.45Z"/><path fill="#FFAC32" opacity="1" d="M-141.57-3.58L-141.72-2.78C-142.19-3.44-142.89-3.80-143.73-3.80C-145.40-3.80-146.57-2.58-146.57-0.42L-146.57 1.78C-146.57 3.78-145.40 4.98-143.70 4.98C-142.97 4.98-142.35 4.75-141.89 4.29L-141.89 5.83C-141.89 6.77-142.48 7.33-143.46 7.33C-144.42 7.33-145.00 6.82-145.06 5.90L-146.36 5.90C-146.28 7.53-145.18 8.56-143.46 8.56C-141.69 8.56-140.56 7.48-140.56 5.83L-140.56-3.58ZM-143.48 3.73C-144.58 3.73-145.22 3.09-145.22 1.78L-145.22-0.42C-145.22-1.89-144.58-2.53-143.48-2.53C-142.58-2.53-141.89-1.89-141.89-0.55L-141.89 1.78C-141.89 3.09-142.48 3.73-143.48 3.73Z"/><path fill="#FFAC32" opacity="1" d="M-131.05-5.15C-130.51-5.15-130.12-5.54-130.12-6.06C-130.12-6.62-130.51-6.99-131.05-6.99C-131.61-6.99-131.98-6.62-131.98-6.06C-131.98-5.52-131.61-5.15-131.05-5.15ZM-131.71 5.30L-130.38 5.30L-130.38-3.58L-131.71-3.58Z"/><path fill="#FFAC32" opacity="1" d="M-121.51 5.30L-120.19 5.30L-120.19-6.92L-121.51-6.92Z"/><path fill="#FFAC32" opacity="1" d="M-110.69-5.15C-110.15-5.15-109.76-5.54-109.76-6.06C-109.76-6.62-110.15-6.99-110.69-6.99C-111.24-6.99-111.62-6.62-111.62-6.06C-111.62-5.52-111.24-5.15-110.69-5.15ZM-111.35 5.30L-110.01 5.30L-110.01-3.58L-111.35-3.58Z"/><path fill="#FFAC32" opacity="1" d="M-96.71-6.92L-96.71-2.95C-97.18-3.49-97.87-3.80-98.58-3.80C-100.30-3.80-101.38-2.60-101.38-0.42L-101.38 2.08C-101.38 4.29-100.24 5.51-98.58 5.51C-97.75 5.51-96.98 5.08-96.54 4.48L-96.40 5.30L-95.41 5.30L-95.41-6.92ZM-96.71 2.10C-96.71 3.57-97.42 4.26-98.34 4.26C-99.41 4.26-100.03 3.60-100.03 2.08L-100.03-0.42C-100.03-1.91-99.46-2.55-98.34-2.55C-97.33-2.55-96.71-1.70-96.71-0.42Z"/><path fill="#FFAC32" opacity="1" d="M-83.84-3.80C-85.56-3.80-86.69-2.77-86.76-1.15L-85.43-1.15C-85.36-2.04-84.74-2.51-83.87-2.51C-82.86-2.51-82.37-1.87-82.37-0.71L-82.37 0.07L-83.89 0.07C-85.83 0.07-87.03 1.02-87.03 2.77C-87.03 4.48-85.88 5.52-84.26 5.52C-83.27 5.52-82.63 5.07-82.24 4.46L-82.14 5.30L-81.04 5.30L-81.04-0.72C-81.04-2.65-82.05-3.80-83.84-3.80ZM-82.37 2.72C-82.37 3.65-83.00 4.29-84.01 4.29C-85.02 4.29-85.68 3.77-85.68 2.79C-85.68 1.79-85.06 1.25-83.91 1.25L-82.37 1.25Z"/><path fill="#FFAC32" opacity="1" d="M-67.73-6.92L-67.73-2.95C-68.21-3.49-68.90-3.80-69.61-3.80C-71.33-3.80-72.41-2.60-72.41-0.42L-72.41 2.08C-72.41 4.29-71.26 5.51-69.61 5.51C-68.78 5.51-68.00 5.08-67.56 4.48L-67.43 5.30L-66.43 5.30L-66.43-6.92ZM-67.73 2.10C-67.73 3.57-68.44 4.26-69.37 4.26C-70.43 4.26-71.06 3.60-71.06 2.08L-71.06-0.42C-71.06-1.91-70.49-2.55-69.37-2.55C-68.36-2.55-67.73-1.70-67.73-0.42Z"/><path fill="#FFAC32" opacity="1" d="M-53.01 2.55C-53.16 3.68-53.68 4.19-54.82 4.19C-55.85 4.19-56.45 3.58-56.45 2.23L-56.45 1.42L-51.81 1.42L-51.81-0.55C-51.81-2.61-52.99-3.80-54.83-3.80C-56.64-3.80-57.80-2.61-57.80-0.55L-57.80 2.23C-57.80 4.31-56.66 5.49-54.85 5.49C-52.96 5.49-51.83 4.43-51.69 2.55ZM-54.82-2.53C-53.75-2.53-53.13-1.91-53.13-0.57L-53.13 0.32L-56.45 0.32L-56.45-0.57C-56.45-1.91-55.85-2.53-54.82-2.53Z"/><path fill="#FFAC32" opacity="1" d=""/><path fill="#FFAC32" opacity="1" d="M-28.12 2.55C-28.27 3.68-28.80 4.19-29.93 4.19C-30.96 4.19-31.57 3.58-31.57 2.23L-31.57 1.42L-26.92 1.42L-26.92-0.55C-26.92-2.61-28.10-3.80-29.95-3.80C-31.75-3.80-32.92-2.61-32.92-0.55L-32.92 2.23C-32.92 4.31-31.77 5.49-29.96 5.49C-28.07 5.49-26.94 4.43-26.80 2.55ZM-29.93-2.53C-28.86-2.53-28.24-1.91-28.24-0.57L-28.24 0.32L-31.57 0.32L-31.57-0.57C-31.57-1.91-30.96-2.53-29.93-2.53Z"/><path fill="#FFAC32" opacity="1" d=""/><path fill="#FFAC32" opacity="1" d="M-5.31 5.52C-3.57 5.52-2.46 4.49-2.46 2.97C-2.46-0.18-6.93 0.54-6.93-1.33C-6.93-2.09-6.39-2.56-5.48-2.56C-4.48-2.56-3.94-1.97-3.93-1.01L-2.63-1.01C-2.66-2.67-3.71-3.80-5.48-3.80C-7.17-3.80-8.27-2.83-8.27-1.35C-8.27 1.67-3.79 0.98-3.79 2.96C-3.79 3.77-4.36 4.26-5.33 4.26C-6.46 4.26-7.05 3.60-7.07 2.62L-8.38 2.62C-8.37 4.29-7.22 5.52-5.31 5.52Z"/><path fill="#FFAC32" opacity="1" d="M10.44 2.55C10.29 3.68 9.77 4.19 8.64 4.19C7.61 4.19 7.00 3.58 7.00 2.23L7.00 1.42L11.64 1.42L11.64-0.55C11.64-2.61 10.46-3.80 8.62-3.80C6.81-3.80 5.65-2.61 5.65-0.55L5.65 2.23C5.65 4.31 6.80 5.49 8.60 5.49C10.49 5.49 11.62 4.43 11.76 2.55ZM8.64-2.53C9.70-2.53 10.32-1.91 10.32-0.57L10.32 0.32L7.00 0.32L7.00-0.57C7.00-1.91 7.61-2.53 8.64-2.53Z"/><path fill="#FFAC32" opacity="1" d="M25.03-3.58L24.88-2.78C24.41-3.44 23.71-3.80 22.87-3.80C21.20-3.80 20.03-2.58 20.03-0.42L20.03 1.78C20.03 3.78 21.20 4.98 22.90 4.98C23.63 4.98 24.25 4.75 24.71 4.29L24.71 5.83C24.71 6.77 24.12 7.33 23.14 7.33C22.18 7.33 21.60 6.82 21.54 5.90L20.24 5.90C20.32 7.53 21.42 8.56 23.14 8.56C24.91 8.56 26.04 7.48 26.04 5.83L26.04-3.58ZM23.12 3.73C22.03 3.73 21.38 3.09 21.38 1.78L21.38-0.42C21.38-1.89 22.03-2.53 23.12-2.53C24.02-2.53 24.71-1.89 24.71-0.55L24.71 1.78C24.71 3.09 24.12 3.73 23.12 3.73Z"/><path fill="#FFAC32" opacity="1" d="M39.35-3.58L39.35 1.86C39.35 3.38 38.64 4.26 37.58 4.26C36.56 4.26 36.12 3.55 36.12 1.94L36.12-3.58L34.81-3.58L34.81 2.05C34.81 4.48 35.75 5.52 37.24 5.52C38.29 5.52 39.05 5.03 39.50 4.26L39.67 5.30L40.67 5.30L40.67-3.58Z"/><path fill="#FFAC32" opacity="1" d="M52.99-3.78C51.91-3.78 51.15-3.29 50.70-2.50L50.51-3.58L49.51-3.58L49.51 5.30L50.83 5.30L50.83-0.13C50.83-1.64 51.61-2.50 52.79-2.50C53.23-2.50 53.58-2.43 53.90-2.31L53.90-3.66C53.63-3.75 53.35-3.78 52.99-3.78Z"/><path fill="#FFAC32" opacity="1" d="M64.56-3.80C62.84-3.80 61.70-2.77 61.64-1.15L62.97-1.15C63.04-2.04 63.66-2.51 64.52-2.51C65.54-2.51 66.03-1.87 66.03-0.71L66.03 0.07L64.51 0.07C62.57 0.07 61.37 1.02 61.37 2.77C61.37 4.48 62.52 5.52 64.14 5.52C65.13 5.52 65.77 5.07 66.16 4.46L66.26 5.30L67.36 5.30L67.36-0.72C67.36-2.65 66.35-3.80 64.56-3.80ZM66.03 2.72C66.03 3.65 65.40 4.29 64.39 4.29C63.38 4.29 62.72 3.77 62.72 2.79C62.72 1.79 63.34 1.25 64.49 1.25L66.03 1.25Z"/><path fill="#FFAC32" opacity="1" d="M79.64-3.80C78.59-3.80 77.83-3.31 77.37-2.53L77.21-3.58L76.21-3.58L76.21 5.30L77.53 5.30L77.53-0.13C77.53-1.65 78.23-2.53 79.30-2.53C80.31-2.53 80.75-1.82 80.75-0.22L80.75 5.30L82.07 5.30L82.07-0.32C82.07-2.75 81.12-3.80 79.64-3.80Z"/><path fill="#FFAC32" opacity="1" d="M96.57 2.26L95.24 2.26C95.19 3.58 94.60 4.19 93.55 4.19C92.55 4.19 91.96 3.58 91.96 2.26L91.96-0.59C91.96-1.89 92.55-2.51 93.55-2.51C94.58-2.51 95.17-1.89 95.20-0.59L96.55-0.59C96.49-2.63 95.39-3.80 93.55-3.80C91.76-3.80 90.61-2.63 90.61-0.59L90.61 2.26C90.61 4.14 91.56 5.27 93.08 5.46L92.76 6.55L93.06 6.84C93.19 6.76 93.40 6.71 93.60 6.71C94.01 6.71 94.22 6.91 94.22 7.26C94.22 7.63 93.95 7.85 93.55 7.85C93.21 7.85 92.96 7.68 92.87 7.38L91.95 7.38C92.03 8.21 92.69 8.70 93.53 8.70C94.48 8.70 95.15 8.16 95.15 7.30C95.15 6.59 94.60 6.13 93.95 6.13L93.74 6.13L93.92 5.47C95.52 5.32 96.52 4.17 96.57 2.26Z"/><path fill="#FFAC32" opacity="1" d="M107.65-3.80C105.93-3.80 104.79-2.77 104.73-1.15L106.06-1.15C106.13-2.04 106.75-2.51 107.61-2.51C108.63-2.51 109.12-1.87 109.12-0.71L109.12 0.07L107.60 0.07C105.66 0.07 104.46 1.02 104.46 2.77C104.46 4.48 105.60 5.52 107.23 5.52C108.22 5.52 108.86 5.07 109.25 4.46L109.35 5.30L110.45 5.30L110.45-0.72C110.45-2.65 109.44-3.80 107.65-3.80ZM109.12 2.72C109.12 3.65 108.49 4.29 107.48 4.29C106.47 4.29 105.81 3.77 105.81 2.79C105.81 1.79 106.43 1.25 107.58 1.25L109.12 1.25Z"/><path fill="#FFAC32" opacity="1" d=""/></g></svg>